<svg width="285" height="147" viewBox="0 0 285 147" fill="none" xmlns="http://www.w3.org/2000/svg">
<path d="M0 47.8908V31.3511H75.9095V47.8908H0ZM15.5522 111.334V31.598C15.5522 29.6231 15.5522 27.2779 15.6756 24.6859C15.6756 22.0939 16.1693 19.5019 16.9099 16.9098C17.6505 14.3178 18.8848 11.9726 20.8597 9.75088C23.3283 7.03542 26.0437 5.06054 28.8826 4.0731C31.7215 3.08566 34.5604 2.46851 37.2759 2.46851C39.9913 2.46851 42.3365 2.46851 44.188 2.46851H54.0624V18.7613H44.9285C41.7194 18.7613 39.3742 19.5019 37.893 21.1064C36.4119 22.711 35.5479 24.6859 35.5479 26.9077V111.334H15.4288H15.5522Z" fill="#F2F5F9"/>
<path d="M49.6189 146.882V128.12H53.1984C57.7653 128.12 60.9745 127.133 62.7025 125.034C64.4305 122.936 65.2945 119.974 65.2945 116.148V31.3511H85.4136V125.898C85.4136 132.317 83.4387 137.377 79.489 141.204C75.5392 145.03 70.1083 146.882 63.3196 146.882H49.7423H49.6189Z" fill="#F2F5F9"/>
<path d="M125.775 113.556C117.752 113.556 110.717 111.704 104.545 108.125C98.3739 104.545 93.6835 99.4845 90.3509 93.1896C87.0183 86.8946 85.2903 79.6123 85.2903 71.3425C85.2903 63.0726 87.0183 55.6668 90.4743 49.3719C93.9304 43.077 98.7442 38.0163 104.792 34.5603C110.84 30.9808 117.876 29.2528 125.775 29.2528C133.675 29.2528 140.957 31.1043 147.005 34.6837C153.053 38.2632 157.867 43.3238 161.2 49.6188C164.656 55.9137 166.26 63.1961 166.26 71.4659C166.26 79.7357 164.532 87.1415 161.076 93.4364C157.62 99.7314 152.93 104.792 146.758 108.371C140.71 111.951 133.551 113.802 125.652 113.802L125.775 113.556ZM125.775 94.7942C132.194 94.7942 137.131 92.5724 140.217 88.2524C143.426 83.9323 145.03 78.2545 145.03 71.3425C145.03 64.4304 143.426 58.5057 140.217 54.3091C137.007 50.1125 132.194 47.8907 125.775 47.8907C121.332 47.8907 117.752 48.8782 114.914 50.8531C112.075 52.8279 109.976 55.5434 108.619 59.1229C107.261 62.5789 106.52 66.6521 106.52 71.3425C106.52 78.5014 108.125 84.1792 111.334 88.3758C114.543 92.5724 119.357 94.6707 125.528 94.6707L125.775 94.7942Z" fill="#F2F5F9"/>
<path d="M166.26 111.334V31.3512H184.034V50.8531L182.059 48.3845C183.047 45.6691 184.528 43.077 186.256 40.8553C187.984 38.6336 190.082 36.6587 192.674 35.1775C194.649 33.9432 196.747 33.0792 198.969 32.3386C201.191 31.7215 203.536 31.2278 206.005 31.1043C208.473 30.9809 210.819 31.1043 213.287 31.3512V50.1126C211.065 49.372 208.473 49.2485 205.511 49.372C202.549 49.6188 199.957 50.236 197.488 51.4703C195.143 52.5812 193.168 54.0623 191.44 55.7903C189.835 57.6418 188.601 59.7401 187.737 62.2087C186.873 64.6773 186.503 67.3928 186.503 70.4785V111.334H166.26Z" fill="#F2F5F9"/>
<path d="M245.626 113.556C238.22 113.556 231.802 111.704 226.247 108.001C220.693 104.298 216.373 99.2377 213.287 92.9428C210.202 86.5244 208.597 79.3655 208.597 71.3425C208.597 63.3196 210.202 55.9138 213.287 49.6188C216.373 43.3239 220.817 38.2633 226.494 34.6838C232.172 30.9809 238.837 29.2529 246.49 29.2529C254.143 29.2529 260.438 31.1043 265.622 34.8072C270.806 38.5101 274.755 43.5708 277.347 49.8657C280.063 56.2841 281.297 63.443 281.297 71.466C281.297 79.4889 279.939 86.6479 277.224 93.0662C274.509 99.4846 270.559 104.422 265.128 108.125C259.697 111.828 253.155 113.679 245.256 113.679L245.626 113.556ZM248.835 95.6583C253.279 95.6583 256.858 94.6708 259.574 92.5725C262.289 90.5976 264.264 87.7587 265.375 84.0558C266.609 80.3529 267.103 76.1563 267.103 71.3425C267.103 66.5288 266.486 62.2087 265.375 58.6292C264.14 54.9263 262.289 52.0874 259.697 50.1126C257.105 48.1377 253.649 47.0268 249.452 47.0268C245.009 47.0268 241.306 48.1377 238.344 50.3594C235.505 52.5812 233.283 55.5435 231.925 59.123C230.567 62.7024 229.827 66.8991 229.827 71.3425C229.827 75.786 230.444 79.9826 231.802 83.5621C233.16 87.265 235.134 90.2273 237.973 92.3257C240.689 94.5474 244.268 95.5348 248.588 95.5348L248.835 95.6583ZM267.226 111.334V56.5309H264.758V4.69031H285V111.334H267.226Z" fill="#F2F5F9"/>
<path d="M75.9095 21.7237C81.9083 21.7237 86.7713 16.8607 86.7713 10.8618C86.7713 4.86301 81.9083 0 75.9095 0C69.9106 0 65.0476 4.86301 65.0476 10.8618C65.0476 16.8607 69.9106 21.7237 75.9095 21.7237Z" fill="#F2F5F9"/>
</svg>
