<svg fill="none" height="145" viewBox="0 0 279 145" width="279" xmlns="http://www.w3.org/2000/svg" xmlns:xlink="http://www.w3.org/1999/xlink"><linearGradient id="a" gradientUnits="userSpaceOnUse" x1="9.49999" x2="239.719" y1="11" y2="-44.7396"><stop offset="0" stop-color="#97a3b6"/><stop offset="1" stop-color="#677489"/></linearGradient><g fill="url(#a)"><path d="m0 45.8908v-16.5396h75.9095v16.5396zm15.5522 63.4432v-79.7359c0-1.9749 0-4.3201.1234-6.9121 0-2.5921.4937-5.1841 1.2343-7.7761s1.9749-4.93722 3.9498-7.15896c2.4686-2.71546 5.184-4.69034 8.0229-5.67778s5.6778-1.604593 8.3933-1.604593h6.9121 9.8744v16.292733h-9.1339c-3.2091 0-5.5543.7406-7.0355 2.3452-1.4811 1.6046-2.3451 3.5795-2.3451 5.8012v84.4263h-20.1191z"/><path d="m43.6188 144.882v-18.762h3.5795c4.5669 0 7.7761-.987 9.5041-3.085 1.728-2.099 2.5921-5.061 2.5921-8.887v-84.7968h20.1191v94.5478c0 6.418-1.9749 11.479-5.9247 15.305-3.9497 3.826-9.3807 5.678-16.1693 5.678z"/><path d="m119.775 111.556c-8.023 0-15.058-1.852-21.2297-5.431-6.1715-3.58-10.8618-8.6404-14.1944-14.9354-3.3327-6.2949-5.0607-13.5773-5.0607-21.8471s1.728-15.6756 5.1841-21.9705c3.456-6.295 8.2698-11.3556 14.3179-14.8116 6.0478-3.5795 13.0838-5.3075 20.9828-5.3075 7.9 0 15.182 1.8514 21.23 5.4309s10.862 8.6401 14.195 14.935c3.456 6.295 5.06 13.5773 5.06 21.8472 0 8.2698-1.728 15.6756-5.184 21.9705s-8.146 11.3555-14.318 14.9355c-6.048 3.579-13.207 5.43-21.106 5.43zm0-18.7618c6.419 0 11.356-2.2217 14.442-6.5418 3.209-4.32 4.813-9.9978 4.813-16.9099s-1.604-12.8367-4.813-17.0333c-3.21-4.1966-8.023-6.4184-14.442-6.4184-4.443 0-8.023.9874-10.862 2.9623-2.838 1.9749-4.937 4.6904-6.295 8.2698-1.357 3.4561-2.098 7.5293-2.098 12.2196 0 7.159 1.605 12.8367 4.814 17.0334 3.209 4.1966 8.023 6.2949 14.194 6.2949z"/><path d="m160.26 109.334v-79.9828h17.774v19.502l-1.975-2.4686c.988-2.7155 2.469-5.3075 4.197-7.5293 1.728-2.2217 3.826-4.1966 6.418-5.6777 1.975-1.2343 4.074-2.0984 6.295-2.8389 2.222-.6172 4.567-1.1109 7.036-1.2343 2.468-.1235 4.814 0 7.282.2468v18.7614c-2.222-.7406-4.814-.864-7.776-.7406-2.962.2469-5.554.864-8.023 2.0983-2.345 1.1109-4.32 2.5921-6.048 4.3201-1.605 1.8514-2.839 3.9497-3.703 6.4183s-1.234 5.1841-1.234 8.2698v40.8555z"/><path d="m239.626 111.556c-7.406 0-13.824-1.852-19.379-5.555-5.554-3.703-9.874-8.7633-12.96-15.0582-3.086-6.4184-4.69-13.5773-4.69-21.6002 0-8.023 1.604-15.4288 4.69-21.7237 3.086-6.295 7.529-11.3556 13.207-14.9351 5.678-3.7029 12.343-5.4309 19.996-5.4309s13.947 1.8515 19.132 5.5544c5.184 3.7029 9.133 8.7635 11.725 15.0584 2.716 6.4184 3.95 13.5773 3.95 21.6003 0 8.0229-1.358 15.1819-4.073 21.6002-2.716 6.4184-6.665 11.3558-12.096 15.0588s-11.973 5.554-19.872 5.554zm3.209-17.8977c4.444 0 8.023-.9875 10.738-3.0858 2.716-1.9749 4.691-4.8138 5.802-8.5167 1.234-3.7029 1.728-7.8995 1.728-12.7132 0-4.8138-.617-9.1339-1.728-12.7133-1.235-3.7029-3.086-6.5418-5.678-8.5167s-6.048-3.0858-10.245-3.0858c-4.443 0-8.146 1.1109-11.109 3.3326-2.838 2.2218-5.06 5.1841-6.418 8.7636-1.358 3.5794-2.098 7.7761-2.098 12.2196 0 4.4434.617 8.64 1.975 12.2195 1.357 3.7029 3.332 6.6652 6.171 8.7636 2.716 2.2217 6.295 3.2091 10.615 3.2091zm18.391 15.6757v-54.8031h-2.468v-51.84058h20.242v106.64368z"/><path d="m87.6835 33.5478c5.9988 0 10.8618-4.863 10.8618-10.8618 0-5.9989-4.863-10.8619-10.8618-10.8619-5.9989 0-10.8619 4.863-10.8619 10.8619 0 5.9988 4.863 10.8618 10.8619 10.8618z"/></g></svg>
